<?xml version="1.0" encoding="UTF-8" standalone="no"?>
<!-- Created with Inkscape (http://www.inkscape.org/) -->

<svg
   width="512"
   height="512"
   viewBox="0 0 512 512"
   version="1.1"
   id="svg5"
   xml:space="preserve"
   inkscape:version="1.2.1 (9c6d41e410, 2022-07-14)"
   sodipodi:docname="Naivis.svg"
   xmlns:inkscape="http://www.inkscape.org/namespaces/inkscape"
   xmlns:sodipodi="http://sodipodi.sourceforge.net/DTD/sodipodi-0.dtd"
   xmlns="http://www.w3.org/2000/svg"
   xmlns:svg="http://www.w3.org/2000/svg"><sodipodi:namedview
     id="namedview7"
     pagecolor="#ffffff"
     bordercolor="#000000"
     borderopacity="0.25"
     inkscape:showpageshadow="2"
     inkscape:pageopacity="0.0"
     inkscape:pagecheckerboard="0"
     inkscape:deskcolor="#d1d1d1"
     inkscape:document-units="px"
     showgrid="false"
     inkscape:zoom="2.0058594"
     inkscape:cx="294.38754"
     inkscape:cy="256.24927"
     inkscape:window-width="2560"
     inkscape:window-height="1369"
     inkscape:window-x="-8"
     inkscape:window-y="-8"
     inkscape:window-maximized="1"
     inkscape:current-layer="layer1" /><defs
     id="defs2" /><g
     inkscape:label="Naivis"
     inkscape:groupmode="layer"
     id="layer1"
     style="fill:#051320;fill-opacity:1"><g
       id=".."
       transform="matrix(3.0883274,0,0,3.0883274,-52.83274,-16.846)"
       style="fill:#051320;fill-opacity:1"><path
         d="m 82.72,128.695 q -3.96,0 -6.48,-2.52 -2.52,-2.7 -2.52,-6.48 0,-3.78 2.52,-6.3 2.52,-2.7 6.48,-2.7 3.78,0 6.3,2.7 2.52,2.52 2.52,6.3 0,3.78 -2.52,6.48 -2.52,2.52 -6.3,2.52 z"
         id="path139"
         style="fill:#e8384f;fill-opacity:1" /><path
         d="m 117.28,128.695 q -3.78,0 -6.3,-2.52 -2.52,-2.7 -2.52,-6.48 0,-3.78 2.52,-6.3 2.52,-2.7 6.3,-2.7 3.96,0 6.48,2.7 2.52,2.52 2.52,6.3 0,3.78 -2.52,6.48 -2.52,2.52 -6.48,2.52 z"
         id="path141"
         style="fill:#10abd8;fill-opacity:1" /></g><path
       stroke-width="27.2128"
       d="m 200.51373,199.38015 h 109.532"
       id="path136"
       style="fill:#051320;fill-opacity:1;stroke:#0a70ae;stroke-opacity:1" /><path
       stroke-width="30.8833"
       d="M 45.221654,146.83535 H 188.82888 V 248.75016 H 45.221654 Z"
       id="path132"
       style="fill:none;fill-opacity:1;stroke:#e8384f;stroke-opacity:1" /><path
       stroke-width="30.8833"
       d="M 323.17112,146.83535 H 466.77834 V 248.75016 H 323.17112 Z"
       id="path134"
       style="fill:none;fill-opacity:1;stroke:#0facd9;stroke-opacity:1" /></g></svg>
